<?xml version="1.0" encoding="UTF-8"?>
<svg version="1.1" xmlns="http://www.w3.org/2000/svg" width="100" height="100">
<path d="M0 0 C4.65766235 2.64847467 6.83067425 6.13666271 9.875 10.5 C13.39192408 15.50020695 16.64522141 18.21197478 22 21 C24.87952005 22.80925596 27.58493696 24.58493696 30 27 C30.5689079 30.38350489 30.53772752 33.61391382 30 37 C27.80977082 39.82424288 26.16982793 41.41508603 23 43 C20.58497061 43.0982189 18.16702119 43.12973926 15.75 43.125 C14.44546875 43.12757812 13.1409375 43.13015625 11.796875 43.1328125 C8.41461751 43.01450308 5.32444508 42.58031585 2 42 C-3.25993845 41.70200612 -8.29760781 41.4955875 -13.375 43 C-19.45559258 44.67740485 -27.33705134 45.74704466 -33.203125 42.94921875 C-35.30702896 41.21809389 -36.78124668 39.43750665 -38 37 C-38.203125 34.79296875 -38.203125 34.79296875 -38.25 32.1875 C-38.28867187 30.90939453 -38.28867187 30.90939453 -38.328125 29.60546875 C-37.7714233 25.18499212 -35.83465748 22.74029333 -32.546875 19.82421875 C-31.62390625 19.11910156 -30.7009375 18.41398437 -29.75 17.6875 C-26.2317104 14.90160797 -23.08478799 12.17878154 -20.1875 8.75 C-14.14153168 1.6370961 -9.83558062 -1.75477375 0 0 Z " fill="#000000" transform="translate(54,54)"/>
<path d="M0 0 C4.42768494 2.44935763 6.06981593 5.40842006 8 10 C8.33819345 12.6942745 8.52474053 15.06517094 8.5 17.75 C8.49572998 18.45157227 8.49145996 19.15314453 8.48706055 19.87597656 C8.2395589 27.48468458 5.65484552 32.81418538 0.8125 38.625 C-3.48018914 40.72364802 -7.33670269 41.1042688 -12 40 C-17.05145552 36.48774054 -18.62545895 31.83566313 -20 26 C-20.94758976 17.48991505 -20.97815401 10.63012842 -15.703125 3.63671875 C-11.15409556 -0.73494028 -6.02021039 -0.78184551 0 0 Z " fill="#000000" transform="translate(72,4)"/>
<path d="M0 0 C3.81393567 2.0567721 6.52635049 4.92067022 8 9 C8.31577415 11.94090735 8.32450478 14.85692342 8.3125 17.8125 C8.32861328 18.59431641 8.34472656 19.37613281 8.36132812 20.18164062 C8.36668579 26.59476653 6.97054556 31.04418166 3.375 36.4375 C-0.32018552 38.86854311 -3.71735193 38.83418536 -8 38 C-12.82051988 35.18045064 -15.23959915 31.83612681 -17.30859375 26.66796875 C-18.95584131 20.31164061 -18.88059982 13.73964387 -16.875 7.5 C-12.1874475 1.24993 -7.81090565 -1.7605977 0 0 Z " fill="#000000" transform="translate(40,4)"/>
<path d="M0 0 C4.26451023 4.05128472 5.19916688 7.26513513 5.375 13 C5.29149784 21.39660647 2.71317958 27.62644185 -3.1875 33.625 C-6.84189403 36.43976301 -10.16673958 36.76189966 -14.6953125 36.4453125 C-18.19235391 35.76961297 -19.7716067 34.78549163 -22 32 C-24.38151076 25.89090719 -24.39999345 21.11263638 -22 15 C-17.22831099 5.78224905 -11.51585047 -2.60529697 0 0 Z " fill="#000000" transform="translate(95,36)"/>
<path d="M0 0 C4.39799134 2.48582119 6.05478691 5.42302802 8 10 C9.02961321 17.99573504 8.79141825 25.33222216 4 32 C3.46375 32.825 2.9275 33.65 2.375 34.5 C-0.92032579 36.5812584 -3.59132854 36.79154873 -7.453125 36.66015625 C-12.088157 35.45874458 -14.54305474 31.92960969 -17 28 C-19.29213072 21.12360784 -18.87613647 13.95827545 -15.75 7.4375 C-12.04574895 0.47487998 -7.61637003 -1.21262421 0 0 Z " fill="#000000" transform="translate(18,36)"/>
</svg>
